ply
format ascii 1.0
comment Created by Blender 2.82 (sub 7) - www.blender.org, source file: ''
element vertex 24
property float x
property float y
property float z
property float nx
property float ny
property float nz
property float s
property float t
element face 6
property list uchar uint vertex_indices
end_header
8.364584 1.475180 8.594044 -0.490304 -0.537748 0.685878 0.625000 0.500000
-10.155451 -0.875885 -6.488424 -0.490304 -0.537748 0.685878 0.875000 0.500000
-9.345192 -2.550676 -7.222288 -0.490304 -0.537748 0.685878 0.875000 0.750000
9.174843 -0.199610 7.860180 -0.490304 -0.537748 0.685878 0.625000 0.750000
10.155451 0.875885 6.488424 0.405130 -0.837395 -0.366932 0.375000 0.750000
9.174843 -0.199610 7.860180 0.405130 -0.837395 -0.366932 0.625000 0.750000
-9.345192 -2.550676 -7.222288 0.405130 -0.837395 -0.366932 0.625000 1.000000
-8.364584 -1.475180 -8.594044 0.405130 -0.837395 -0.366932 0.375000 1.000000
-8.364584 -1.475180 -8.594044 -0.771668 -0.097961 -0.628436 0.375000 0.000000
-9.345192 -2.550676 -7.222288 -0.771668 -0.097961 -0.628436 0.625000 0.000000
-10.155451 -0.875885 -6.488424 -0.771668 -0.097961 -0.628436 0.625000 0.250000
-9.174843 0.199610 -7.860180 -0.771668 -0.097961 -0.628436 0.375000 0.250000
-9.174843 0.199610 -7.860180 0.490304 0.537748 -0.685878 0.125000 0.500000
9.345192 2.550676 7.222288 0.490304 0.537748 -0.685878 0.375000 0.500000
10.155451 0.875885 6.488424 0.490304 0.537748 -0.685878 0.375000 0.750000
-8.364584 -1.475180 -8.594044 0.490304 0.537748 -0.685878 0.125000 0.750000
9.345192 2.550676 7.222288 0.771668 0.097961 0.628436 0.375000 0.500000
8.364584 1.475180 8.594044 0.771668 0.097961 0.628436 0.625000 0.500000
9.174843 -0.199610 7.860180 0.771668 0.097961 0.628436 0.625000 0.750000
10.155451 0.875885 6.488424 0.771668 0.097961 0.628436 0.375000 0.750000
-9.174843 0.199610 -7.860180 -0.405130 0.837395 0.366932 0.375000 0.250000
-10.155451 -0.875885 -6.488424 -0.405130 0.837395 0.366932 0.625000 0.250000
8.364584 1.475180 8.594044 -0.405130 0.837395 0.366932 0.625000 0.500000
9.345192 2.550676 7.222288 -0.405130 0.837395 0.366932 0.375000 0.500000
4 0 1 2 3
4 4 5 6 7
4 8 9 10 11
4 12 13 14 15
4 16 17 18 19
4 20 21 22 23
