ply
format ascii 1.0
comment Created by Blender 2.82 (sub 7) - www.blender.org, source file: ''
element vertex 512
property float x
property float y
property float z
property float nx
property float ny
property float nz
property float s
property float t
element face 129
property list uchar uint vertex_indices
end_header
0.000000 1.000000 -1.000000 0.021952 0.894212 0.447106 0.250000 0.490000
0.000000 0.000000 1.000000 0.021952 0.894212 0.447106 0.250000 0.250000
0.049068 0.998795 -1.000000 0.021952 0.894212 0.447106 0.261776 0.489711
0.049068 0.998795 -1.000000 0.065802 0.892057 0.447106 0.261776 0.489711
0.000000 0.000000 1.000000 0.065802 0.892057 0.447106 0.250000 0.250000
0.098017 0.995185 -1.000000 0.065802 0.892057 0.447106 0.273524 0.488844
0.098017 0.995185 -1.000000 0.109494 0.887754 0.447106 0.273524 0.488844
0.000000 0.000000 1.000000 0.109494 0.887754 0.447106 0.250000 0.250000
0.146730 0.989177 -1.000000 0.109494 0.887754 0.447106 0.285215 0.487402
0.146730 0.989177 -1.000000 0.152923 0.881312 0.447106 0.285215 0.487402
0.000000 0.000000 1.000000 0.152923 0.881312 0.447106 0.250000 0.250000
0.195090 0.980785 -1.000000 0.152923 0.881312 0.447106 0.296822 0.485388
0.195090 0.980785 -1.000000 0.195981 0.872747 0.447106 0.296822 0.485388
0.000000 0.000000 1.000000 0.195981 0.872747 0.447106 0.250000 0.250000
0.242980 0.970031 -1.000000 0.195981 0.872747 0.447106 0.308315 0.482808
0.242980 0.970031 -1.000000 0.238569 0.862079 0.447106 0.308315 0.482808
0.000000 0.000000 1.000000 0.238569 0.862079 0.447106 0.250000 0.250000
0.290285 0.956940 -1.000000 0.238569 0.862079 0.447106 0.319668 0.479666
0.290285 0.956940 -1.000000 0.280583 0.849335 0.447106 0.319668 0.479666
0.000000 0.000000 1.000000 0.280583 0.849335 0.447106 0.250000 0.250000
0.336890 0.941544 -1.000000 0.280583 0.849335 0.447106 0.330854 0.475971
0.336890 0.941544 -1.000000 0.321919 0.834545 0.447106 0.330854 0.475971
0.000000 0.000000 1.000000 0.321919 0.834545 0.447106 0.250000 0.250000
0.382683 0.923880 -1.000000 0.321919 0.834545 0.447106 0.341844 0.471731
0.382683 0.923880 -1.000000 0.362481 0.817743 0.447106 0.341844 0.471731
0.000000 0.000000 1.000000 0.362481 0.817743 0.447106 0.250000 0.250000
0.427555 0.903989 -1.000000 0.362481 0.817743 0.447106 0.352613 0.466957
0.427555 0.903989 -1.000000 0.402169 0.798972 0.447106 0.352613 0.466957
0.000000 0.000000 1.000000 0.402169 0.798972 0.447106 0.250000 0.250000
0.471397 0.881921 -1.000000 0.402169 0.798972 0.447106 0.363135 0.461661
0.471397 0.881921 -1.000000 0.440888 0.778276 0.447106 0.363135 0.461661
0.000000 0.000000 1.000000 0.440888 0.778276 0.447106 0.250000 0.250000
0.514103 0.857729 -1.000000 0.440888 0.778276 0.447106 0.373385 0.455855
0.514103 0.857729 -1.000000 0.478545 0.755705 0.447106 0.373385 0.455855
0.000000 0.000000 1.000000 0.478545 0.755705 0.447106 0.250000 0.250000
0.555570 0.831470 -1.000000 0.478545 0.755705 0.447106 0.383337 0.449553
0.555570 0.831470 -1.000000 0.515050 0.731314 0.447106 0.383337 0.449553
0.000000 0.000000 1.000000 0.515050 0.731314 0.447106 0.250000 0.250000
0.595699 0.803208 -1.000000 0.515050 0.731314 0.447106 0.392968 0.442770
0.595699 0.803208 -1.000000 0.550313 0.705161 0.447106 0.392968 0.442770
0.000000 0.000000 1.000000 0.550313 0.705161 0.447106 0.250000 0.250000
0.634393 0.773010 -1.000000 0.550313 0.705161 0.447106 0.402254 0.435522
0.634393 0.773010 -1.000000 0.584251 0.677308 0.447106 0.402254 0.435522
0.000000 0.000000 1.000000 0.584251 0.677308 0.447106 0.250000 0.250000
0.671559 0.740951 -1.000000 0.584251 0.677308 0.447106 0.411174 0.427828
0.671559 0.740951 -1.000000 0.616781 0.647825 0.447106 0.411174 0.427828
0.000000 0.000000 1.000000 0.616781 0.647825 0.447106 0.250000 0.250000
0.707107 0.707107 -1.000000 0.616781 0.647825 0.447106 0.419706 0.419706
0.707107 0.707107 -1.000000 0.647825 0.616781 0.447106 0.419706 0.419706
0.000000 0.000000 1.000000 0.647825 0.616781 0.447106 0.250000 0.250000
0.740951 0.671559 -1.000000 0.647825 0.616781 0.447106 0.427828 0.411174
0.740951 0.671559 -1.000000 0.677308 0.584251 0.447106 0.427828 0.411174
0.000000 0.000000 1.000000 0.677308 0.584251 0.447106 0.250000 0.250000
0.773011 0.634393 -1.000000 0.677308 0.584251 0.447106 0.435523 0.402254
0.773011 0.634393 -1.000000 0.705161 0.550313 0.447106 0.435523 0.402254
0.000000 0.000000 1.000000 0.705161 0.550313 0.447106 0.250000 0.250000
0.803208 0.595699 -1.000000 0.705161 0.550313 0.447106 0.442770 0.392968
0.803208 0.595699 -1.000000 0.731314 0.515050 0.447106 0.442770 0.392968
0.000000 0.000000 1.000000 0.731314 0.515050 0.447106 0.250000 0.250000
0.831470 0.555570 -1.000000 0.731314 0.515050 0.447106 0.449553 0.383337
0.831470 0.555570 -1.000000 0.755706 0.478545 0.447106 0.449553 0.383337
0.000000 0.000000 1.000000 0.755706 0.478545 0.447106 0.250000 0.250000
0.857729 0.514103 -1.000000 0.755706 0.478545 0.447106 0.455855 0.373385
0.857729 0.514103 -1.000000 0.778276 0.440888 0.447106 0.455855 0.373385
0.000000 0.000000 1.000000 0.778276 0.440888 0.447106 0.250000 0.250000
0.881921 0.471397 -1.000000 0.778276 0.440888 0.447106 0.461661 0.363135
0.881921 0.471397 -1.000000 0.798972 0.402169 0.447106 0.461661 0.363135
0.000000 0.000000 1.000000 0.798972 0.402169 0.447106 0.250000 0.250000
0.903989 0.427555 -1.000000 0.798972 0.402169 0.447106 0.466957 0.352613
0.903989 0.427555 -1.000000 0.817743 0.362481 0.447106 0.466957 0.352613
0.000000 0.000000 1.000000 0.817743 0.362481 0.447106 0.250000 0.250000
0.923880 0.382683 -1.000000 0.817743 0.362481 0.447106 0.471731 0.341844
0.923880 0.382683 -1.000000 0.834544 0.321919 0.447106 0.471731 0.341844
0.000000 0.000000 1.000000 0.834544 0.321919 0.447106 0.250000 0.250000
0.941544 0.336890 -1.000000 0.834544 0.321919 0.447106 0.475971 0.330853
0.941544 0.336890 -1.000000 0.849335 0.280582 0.447106 0.475971 0.330853
0.000000 0.000000 1.000000 0.849335 0.280582 0.447106 0.250000 0.250000
0.956940 0.290284 -1.000000 0.849335 0.280582 0.447106 0.479666 0.319668
0.956940 0.290284 -1.000000 0.862080 0.238569 0.447106 0.479666 0.319668
0.000000 0.000000 1.000000 0.862080 0.238569 0.447106 0.250000 0.250000
0.970031 0.242980 -1.000000 0.862080 0.238569 0.447106 0.482808 0.308315
0.970031 0.242980 -1.000000 0.872747 0.195982 0.447106 0.482808 0.308315
0.000000 0.000000 1.000000 0.872747 0.195982 0.447106 0.250000 0.250000
0.980785 0.195090 -1.000000 0.872747 0.195982 0.447106 0.485388 0.296822
0.980785 0.195090 -1.000000 0.881312 0.152922 0.447106 0.485388 0.296822
0.000000 0.000000 1.000000 0.881312 0.152922 0.447106 0.250000 0.250000
0.989177 0.146730 -1.000000 0.881312 0.152922 0.447106 0.487402 0.285215
0.989177 0.146730 -1.000000 0.887754 0.109494 0.447106 0.487402 0.285215
0.000000 0.000000 1.000000 0.887754 0.109494 0.447106 0.250000 0.250000
0.995185 0.098017 -1.000000 0.887754 0.109494 0.447106 0.488844 0.273524
0.995185 0.098017 -1.000000 0.892058 0.065801 0.447106 0.488844 0.273524
0.000000 0.000000 1.000000 0.892058 0.065801 0.447106 0.250000 0.250000
0.998795 0.049067 -1.000000 0.892058 0.065801 0.447106 0.489711 0.261776
0.998795 0.049067 -1.000000 0.894212 0.021952 0.447106 0.489711 0.261776
0.000000 0.000000 1.000000 0.894212 0.021952 0.447106 0.250000 0.250000
1.000000 -0.000000 -1.000000 0.894212 0.021952 0.447106 0.490000 0.250000
1.000000 -0.000000 -1.000000 0.894212 -0.021952 0.447106 0.490000 0.250000
0.000000 0.000000 1.000000 0.894212 -0.021952 0.447106 0.250000 0.250000
0.998795 -0.049068 -1.000000 0.894212 -0.021952 0.447106 0.489711 0.238224
0.998795 -0.049068 -1.000000 0.892057 -0.065803 0.447106 0.489711 0.238224
0.000000 0.000000 1.000000 0.892057 -0.065803 0.447106 0.250000 0.250000
0.995185 -0.098018 -1.000000 0.892057 -0.065803 0.447106 0.488844 0.226476
0.995185 -0.098018 -1.000000 0.887754 -0.109494 0.447106 0.488844 0.226476
0.000000 0.000000 1.000000 0.887754 -0.109494 0.447106 0.250000 0.250000
0.989176 -0.146731 -1.000000 0.887754 -0.109494 0.447106 0.487402 0.214785
0.989176 -0.146731 -1.000000 0.881312 -0.152923 0.447106 0.487402 0.214785
0.000000 0.000000 1.000000 0.881312 -0.152923 0.447106 0.250000 0.250000
0.980785 -0.195091 -1.000000 0.881312 -0.152923 0.447106 0.485388 0.203178
0.980785 -0.195091 -1.000000 0.872747 -0.195982 0.447106 0.485388 0.203178
0.000000 0.000000 1.000000 0.872747 -0.195982 0.447106 0.250000 0.250000
0.970031 -0.242981 -1.000000 0.872747 -0.195982 0.447106 0.482807 0.191685
0.970031 -0.242981 -1.000000 0.862079 -0.238570 0.447106 0.482807 0.191685
0.000000 0.000000 1.000000 0.862079 -0.238570 0.447106 0.250000 0.250000
0.956940 -0.290285 -1.000000 0.862079 -0.238570 0.447106 0.479666 0.180332
0.956940 -0.290285 -1.000000 0.849335 -0.280583 0.447106 0.479666 0.180332
0.000000 0.000000 1.000000 0.849335 -0.280583 0.447106 0.250000 0.250000
0.941544 -0.336890 -1.000000 0.849335 -0.280583 0.447106 0.475971 0.169146
0.941544 -0.336890 -1.000000 0.834544 -0.321919 0.447106 0.475971 0.169146
0.000000 0.000000 1.000000 0.834544 -0.321919 0.447106 0.250000 0.250000
0.923879 -0.382684 -1.000000 0.834544 -0.321919 0.447106 0.471731 0.158156
0.923879 -0.382684 -1.000000 0.817743 -0.362482 0.447106 0.471731 0.158156
0.000000 0.000000 1.000000 0.817743 -0.362482 0.447106 0.250000 0.250000
0.903989 -0.427556 -1.000000 0.817743 -0.362482 0.447106 0.466957 0.147387
0.903989 -0.427556 -1.000000 0.798972 -0.402169 0.447106 0.466957 0.147387
0.000000 0.000000 1.000000 0.798972 -0.402169 0.447106 0.250000 0.250000
0.881921 -0.471397 -1.000000 0.798972 -0.402169 0.447106 0.461661 0.136865
0.881921 -0.471397 -1.000000 0.778276 -0.440888 0.447106 0.461661 0.136865
0.000000 0.000000 1.000000 0.778276 -0.440888 0.447106 0.250000 0.250000
0.857728 -0.514103 -1.000000 0.778276 -0.440888 0.447106 0.455855 0.126615
0.857728 -0.514103 -1.000000 0.755705 -0.478545 0.447106 0.455855 0.126615
0.000000 0.000000 1.000000 0.755705 -0.478545 0.447106 0.250000 0.250000
0.831470 -0.555570 -1.000000 0.755705 -0.478545 0.447106 0.449553 0.116663
0.831470 -0.555570 -1.000000 0.731314 -0.515049 0.447106 0.449553 0.116663
0.000000 0.000000 1.000000 0.731314 -0.515049 0.447106 0.250000 0.250000
0.803208 -0.595699 -1.000000 0.731314 -0.515049 0.447106 0.442770 0.107032
0.803208 -0.595699 -1.000000 0.705161 -0.550313 0.447106 0.442770 0.107032
0.000000 0.000000 1.000000 0.705161 -0.550313 0.447106 0.250000 0.250000
0.773010 -0.634393 -1.000000 0.705161 -0.550313 0.447106 0.435522 0.097746
0.773010 -0.634393 -1.000000 0.677309 -0.584251 0.447106 0.435522 0.097746
0.000000 0.000000 1.000000 0.677309 -0.584251 0.447106 0.250000 0.250000
0.740951 -0.671559 -1.000000 0.677309 -0.584251 0.447106 0.427828 0.088826
0.740951 -0.671559 -1.000000 0.647825 -0.616781 0.447106 0.427828 0.088826
0.000000 0.000000 1.000000 0.647825 -0.616781 0.447106 0.250000 0.250000
0.707107 -0.707107 -1.000000 0.647825 -0.616781 0.447106 0.419706 0.080294
0.707107 -0.707107 -1.000000 0.616781 -0.647825 0.447106 0.419706 0.080294
0.000000 0.000000 1.000000 0.616781 -0.647825 0.447106 0.250000 0.250000
0.671559 -0.740951 -1.000000 0.616781 -0.647825 0.447106 0.411174 0.072172
0.671559 -0.740951 -1.000000 0.584251 -0.677308 0.447106 0.411174 0.072172
0.000000 0.000000 1.000000 0.584251 -0.677308 0.447106 0.250000 0.250000
0.634394 -0.773010 -1.000000 0.584251 -0.677308 0.447106 0.402254 0.064478
0.634394 -0.773010 -1.000000 0.550313 -0.705161 0.447106 0.402254 0.064478
0.000000 0.000000 1.000000 0.550313 -0.705161 0.447106 0.250000 0.250000
0.595700 -0.803207 -1.000000 0.550313 -0.705161 0.447106 0.392968 0.057230
0.595700 -0.803207 -1.000000 0.515050 -0.731314 0.447106 0.392968 0.057230
0.000000 0.000000 1.000000 0.515050 -0.731314 0.447106 0.250000 0.250000
0.555571 -0.831469 -1.000000 0.515050 -0.731314 0.447106 0.383337 0.050447
0.555571 -0.831469 -1.000000 0.478546 -0.755705 0.447106 0.383337 0.050447
0.000000 0.000000 1.000000 0.478546 -0.755705 0.447106 0.250000 0.250000
0.514103 -0.857728 -1.000000 0.478546 -0.755705 0.447106 0.373385 0.044145
0.514103 -0.857728 -1.000000 0.440889 -0.778276 0.447106 0.373385 0.044145
0.000000 0.000000 1.000000 0.440889 -0.778276 0.447106 0.250000 0.250000
0.471397 -0.881921 -1.000000 0.440889 -0.778276 0.447106 0.363135 0.038339
0.471397 -0.881921 -1.000000 0.402169 -0.798972 0.447106 0.363135 0.038339
0.000000 0.000000 1.000000 0.402169 -0.798972 0.447106 0.250000 0.250000
0.427556 -0.903989 -1.000000 0.402169 -0.798972 0.447106 0.352613 0.033043
0.427556 -0.903989 -1.000000 0.362482 -0.817743 0.447106 0.352613 0.033043
0.000000 0.000000 1.000000 0.362482 -0.817743 0.447106 0.250000 0.250000
0.382684 -0.923879 -1.000000 0.362482 -0.817743 0.447106 0.341844 0.028269
0.382684 -0.923879 -1.000000 0.321920 -0.834544 0.447106 0.341844 0.028269
0.000000 0.000000 1.000000 0.321920 -0.834544 0.447106 0.250000 0.250000
0.336891 -0.941544 -1.000000 0.321920 -0.834544 0.447106 0.330854 0.024030
0.336891 -0.941544 -1.000000 0.280583 -0.849335 0.447106 0.330854 0.024030
0.000000 0.000000 1.000000 0.280583 -0.849335 0.447106 0.250000 0.250000
0.290286 -0.956940 -1.000000 0.280583 -0.849335 0.447106 0.319669 0.020334
0.290286 -0.956940 -1.000000 0.238570 -0.862079 0.447106 0.319669 0.020334
0.000000 0.000000 1.000000 0.238570 -0.862079 0.447106 0.250000 0.250000
0.242981 -0.970031 -1.000000 0.238570 -0.862079 0.447106 0.308316 0.017193
0.242981 -0.970031 -1.000000 0.195984 -0.872747 0.447106 0.308316 0.017193
0.000000 0.000000 1.000000 0.195984 -0.872747 0.447106 0.250000 0.250000
0.195092 -0.980785 -1.000000 0.195984 -0.872747 0.447106 0.296822 0.014612
0.195092 -0.980785 -1.000000 0.152923 -0.881312 0.447106 0.296822 0.014612
0.000000 0.000000 1.000000 0.152923 -0.881312 0.447106 0.250000 0.250000
0.146732 -0.989176 -1.000000 0.152923 -0.881312 0.447106 0.285216 0.012598
0.146732 -0.989176 -1.000000 0.109495 -0.887754 0.447106 0.285216 0.012598
0.000000 0.000000 1.000000 0.109495 -0.887754 0.447106 0.250000 0.250000
0.098019 -0.995185 -1.000000 0.109495 -0.887754 0.447106 0.273524 0.011156
0.098019 -0.995185 -1.000000 0.065804 -0.892057 0.447106 0.273524 0.011156
0.000000 0.000000 1.000000 0.065804 -0.892057 0.447106 0.250000 0.250000
0.049069 -0.998795 -1.000000 0.065804 -0.892057 0.447106 0.261777 0.010289
0.049069 -0.998795 -1.000000 0.021953 -0.894212 0.447106 0.261777 0.010289
0.000000 0.000000 1.000000 0.021953 -0.894212 0.447106 0.250000 0.250000
0.000002 -1.000000 -1.000000 0.021953 -0.894212 0.447106 0.250000 0.010000
0.000002 -1.000000 -1.000000 -0.021950 -0.894212 0.447106 0.250000 0.010000
0.000000 0.000000 1.000000 -0.021950 -0.894212 0.447106 0.250000 0.250000
-0.049066 -0.998796 -1.000000 -0.021950 -0.894212 0.447106 0.238224 0.010289
-0.049066 -0.998796 -1.000000 -0.065801 -0.892058 0.447106 0.238224 0.010289
0.000000 0.000000 1.000000 -0.065801 -0.892058 0.447106 0.250000 0.250000
-0.098015 -0.995185 -1.000000 -0.065801 -0.892058 0.447106 0.226476 0.011156
-0.098015 -0.995185 -1.000000 -0.109492 -0.887754 0.447106 0.226476 0.011156
0.000000 0.000000 1.000000 -0.109492 -0.887754 0.447106 0.250000 0.250000
-0.146728 -0.989177 -1.000000 -0.109492 -0.887754 0.447106 0.214785 0.012598
-0.146728 -0.989177 -1.000000 -0.152920 -0.881313 0.447106 0.214785 0.012598
0.000000 0.000000 1.000000 -0.152920 -0.881313 0.447106 0.250000 0.250000
-0.195088 -0.980786 -1.000000 -0.152920 -0.881313 0.447106 0.203179 0.014611
-0.195088 -0.980786 -1.000000 -0.195981 -0.872747 0.447106 0.203179 0.014611
0.000000 0.000000 1.000000 -0.195981 -0.872747 0.447106 0.250000 0.250000
-0.242978 -0.970032 -1.000000 -0.195981 -0.872747 0.447106 0.191685 0.017192
-0.242978 -0.970032 -1.000000 -0.238568 -0.862080 0.447106 0.191685 0.017192
0.000000 0.000000 1.000000 -0.238568 -0.862080 0.447106 0.250000 0.250000
-0.290282 -0.956941 -1.000000 -0.238568 -0.862080 0.447106 0.180332 0.020334
-0.290282 -0.956941 -1.000000 -0.280580 -0.849336 0.447106 0.180332 0.020334
0.000000 0.000000 1.000000 -0.280580 -0.849336 0.447106 0.250000 0.250000
-0.336887 -0.941545 -1.000000 -0.280580 -0.849336 0.447106 0.169147 0.024029
-0.336887 -0.941545 -1.000000 -0.321917 -0.834545 0.447106 0.169147 0.024029
0.000000 0.000000 1.000000 -0.321917 -0.834545 0.447106 0.250000 0.250000
-0.382681 -0.923881 -1.000000 -0.321917 -0.834545 0.447106 0.158157 0.028269
-0.382681 -0.923881 -1.000000 -0.362478 -0.817744 0.447106 0.158157 0.028269
0.000000 0.000000 1.000000 -0.362478 -0.817744 0.447106 0.250000 0.250000
-0.427553 -0.903990 -1.000000 -0.362478 -0.817744 0.447106 0.147387 0.033042
-0.427553 -0.903990 -1.000000 -0.402166 -0.798974 0.447106 0.147387 0.033042
0.000000 0.000000 1.000000 -0.402166 -0.798974 0.447106 0.250000 0.250000
-0.471394 -0.881923 -1.000000 -0.402166 -0.798974 0.447106 0.136865 0.038339
-0.471394 -0.881923 -1.000000 -0.440886 -0.778277 0.447106 0.136865 0.038339
0.000000 0.000000 1.000000 -0.440886 -0.778277 0.447106 0.250000 0.250000
-0.514100 -0.857730 -1.000000 -0.440886 -0.778277 0.447106 0.126616 0.044145
-0.514100 -0.857730 -1.000000 -0.478543 -0.755707 0.447106 0.126616 0.044145
0.000000 0.000000 1.000000 -0.478543 -0.755707 0.447106 0.250000 0.250000
-0.555568 -0.831471 -1.000000 -0.478543 -0.755707 0.447106 0.116664 0.050447
-0.555568 -0.831471 -1.000000 -0.515047 -0.731316 0.447106 0.116664 0.050447
0.000000 0.000000 1.000000 -0.515047 -0.731316 0.447106 0.250000 0.250000
-0.595697 -0.803209 -1.000000 -0.515047 -0.731316 0.447106 0.107033 0.057230
-0.595697 -0.803209 -1.000000 -0.550311 -0.705163 0.447106 0.107033 0.057230
0.000000 0.000000 1.000000 -0.550311 -0.705163 0.447106 0.250000 0.250000
-0.634391 -0.773012 -1.000000 -0.550311 -0.705163 0.447106 0.097746 0.064477
-0.634391 -0.773012 -1.000000 -0.584248 -0.677311 0.447106 0.097746 0.064477
0.000000 0.000000 1.000000 -0.584248 -0.677311 0.447106 0.250000 0.250000
-0.671557 -0.740953 -1.000000 -0.584248 -0.677311 0.447106 0.088826 0.072171
-0.671557 -0.740953 -1.000000 -0.616778 -0.647828 0.447106 0.088826 0.072171
0.000000 0.000000 1.000000 -0.616778 -0.647828 0.447106 0.250000 0.250000
-0.707104 -0.707109 -1.000000 -0.616778 -0.647828 0.447106 0.080295 0.080294
-0.707104 -0.707109 -1.000000 -0.647823 -0.616783 0.447106 0.080295 0.080294
0.000000 0.000000 1.000000 -0.647823 -0.616783 0.447106 0.250000 0.250000
-0.740949 -0.671562 -1.000000 -0.647823 -0.616783 0.447106 0.072172 0.088825
-0.740949 -0.671562 -1.000000 -0.677307 -0.584253 0.447106 0.072172 0.088825
0.000000 0.000000 1.000000 -0.677307 -0.584253 0.447106 0.250000 0.250000
-0.773008 -0.634396 -1.000000 -0.677307 -0.584253 0.447106 0.064478 0.097745
-0.773008 -0.634396 -1.000000 -0.705160 -0.550315 0.447106 0.064478 0.097745
0.000000 0.000000 1.000000 -0.705160 -0.550315 0.447106 0.250000 0.250000
-0.803206 -0.595702 -1.000000 -0.705160 -0.550315 0.447106 0.057231 0.107032
-0.803206 -0.595702 -1.000000 -0.731313 -0.515052 0.447106 0.057231 0.107032
0.000000 0.000000 1.000000 -0.731313 -0.515052 0.447106 0.250000 0.250000
-0.831468 -0.555573 -1.000000 -0.731313 -0.515052 0.447106 0.050448 0.116663
-0.831468 -0.555573 -1.000000 -0.755704 -0.478548 0.447106 0.050448 0.116663
0.000000 0.000000 1.000000 -0.755704 -0.478548 0.447106 0.250000 0.250000
-0.857727 -0.514105 -1.000000 -0.755704 -0.478548 0.447106 0.044145 0.126615
-0.857727 -0.514105 -1.000000 -0.778275 -0.440890 0.447106 0.044145 0.126615
0.000000 0.000000 1.000000 -0.778275 -0.440890 0.447106 0.250000 0.250000
-0.881920 -0.471399 -1.000000 -0.778275 -0.440890 0.447106 0.038339 0.136864
-0.881920 -0.471399 -1.000000 -0.798971 -0.402171 0.447106 0.038339 0.136864
0.000000 0.000000 1.000000 -0.798971 -0.402171 0.447106 0.250000 0.250000
-0.903988 -0.427557 -1.000000 -0.798971 -0.402171 0.447106 0.033043 0.147386
-0.903988 -0.427557 -1.000000 -0.817742 -0.362483 0.447106 0.033043 0.147386
0.000000 0.000000 1.000000 -0.817742 -0.362483 0.447106 0.250000 0.250000
-0.923879 -0.382686 -1.000000 -0.817742 -0.362483 0.447106 0.028269 0.158155
-0.923879 -0.382686 -1.000000 -0.834543 -0.321922 0.447106 0.028269 0.158155
0.000000 0.000000 1.000000 -0.834543 -0.321922 0.447106 0.250000 0.250000
-0.941543 -0.336892 -1.000000 -0.834543 -0.321922 0.447106 0.024030 0.169146
-0.941543 -0.336892 -1.000000 -0.849334 -0.280584 0.447106 0.024030 0.169146
0.000000 0.000000 1.000000 -0.849334 -0.280584 0.447106 0.250000 0.250000
-0.956940 -0.290287 -1.000000 -0.849334 -0.280584 0.447106 0.020334 0.180331
-0.956940 -0.290287 -1.000000 -0.862079 -0.238571 0.447106 0.020334 0.180331
0.000000 0.000000 1.000000 -0.862079 -0.238571 0.447106 0.250000 0.250000
-0.970031 -0.242982 -1.000000 -0.862079 -0.238571 0.447106 0.017193 0.191684
-0.970031 -0.242982 -1.000000 -0.872747 -0.195984 0.447106 0.017193 0.191684
0.000000 0.000000 1.000000 -0.872747 -0.195984 0.447106 0.250000 0.250000
-0.980785 -0.195092 -1.000000 -0.872747 -0.195984 0.447106 0.014612 0.203178
-0.980785 -0.195092 -1.000000 -0.881312 -0.152923 0.447106 0.014612 0.203178
0.000000 0.000000 1.000000 -0.881312 -0.152923 0.447106 0.250000 0.250000
-0.989176 -0.146732 -1.000000 -0.881312 -0.152923 0.447106 0.012598 0.214784
-0.989176 -0.146732 -1.000000 -0.887754 -0.109496 0.447106 0.012598 0.214784
0.000000 0.000000 1.000000 -0.887754 -0.109496 0.447106 0.250000 0.250000
-0.995185 -0.098019 -1.000000 -0.887754 -0.109496 0.447106 0.011156 0.226475
-0.995185 -0.098019 -1.000000 -0.892057 -0.065804 0.447106 0.011156 0.226475
0.000000 0.000000 1.000000 -0.892057 -0.065804 0.447106 0.250000 0.250000
-0.998795 -0.049069 -1.000000 -0.892057 -0.065804 0.447106 0.010289 0.238223
-0.998795 -0.049069 -1.000000 -0.894212 -0.021953 0.447106 0.010289 0.238223
0.000000 0.000000 1.000000 -0.894212 -0.021953 0.447106 0.250000 0.250000
-1.000000 -0.000001 -1.000000 -0.894212 -0.021953 0.447106 0.010000 0.250000
-1.000000 -0.000001 -1.000000 -0.894212 0.021951 0.447106 0.010000 0.250000
0.000000 0.000000 1.000000 -0.894212 0.021951 0.447106 0.250000 0.250000
-0.998796 0.049066 -1.000000 -0.894212 0.021951 0.447106 0.010289 0.261776
-0.998796 0.049066 -1.000000 -0.892058 0.065801 0.447106 0.010289 0.261776
0.000000 0.000000 1.000000 -0.892058 0.065801 0.447106 0.250000 0.250000
-0.995185 0.098016 -1.000000 -0.892058 0.065801 0.447106 0.011156 0.273524
-0.995185 0.098016 -1.000000 -0.887754 0.109494 0.447106 0.011156 0.273524
0.000000 0.000000 1.000000 -0.887754 0.109494 0.447106 0.250000 0.250000
-0.989177 0.146729 -1.000000 -0.887754 0.109494 0.447106 0.012598 0.285215
-0.989177 0.146729 -1.000000 -0.881312 0.152921 0.447106 0.012598 0.285215
0.000000 0.000000 1.000000 -0.881312 0.152921 0.447106 0.250000 0.250000
-0.980785 0.195089 -1.000000 -0.881312 0.152921 0.447106 0.014611 0.296821
-0.980785 0.195089 -1.000000 -0.872747 0.195981 0.447106 0.014611 0.296821
0.000000 0.000000 1.000000 -0.872747 0.195981 0.447106 0.250000 0.250000
-0.970031 0.242979 -1.000000 -0.872747 0.195981 0.447106 0.017192 0.308315
-0.970031 0.242979 -1.000000 -0.862080 0.238569 0.447106 0.017192 0.308315
0.000000 0.000000 1.000000 -0.862080 0.238569 0.447106 0.250000 0.250000
-0.956941 0.290284 -1.000000 -0.862080 0.238569 0.447106 0.020334 0.319668
-0.956941 0.290284 -1.000000 -0.849335 0.280582 0.447106 0.020334 0.319668
0.000000 0.000000 1.000000 -0.849335 0.280582 0.447106 0.250000 0.250000
-0.941544 0.336889 -1.000000 -0.849335 0.280582 0.447106 0.024029 0.330853
-0.941544 0.336889 -1.000000 -0.834544 0.321920 0.447106 0.024029 0.330853
0.000000 0.000000 1.000000 -0.834544 0.321920 0.447106 0.250000 0.250000
-0.923880 0.382683 -1.000000 -0.834544 0.321920 0.447106 0.028269 0.341844
-0.923880 0.382683 -1.000000 -0.817744 0.362480 0.447106 0.028269 0.341844
0.000000 0.000000 1.000000 -0.817744 0.362480 0.447106 0.250000 0.250000
-0.903989 0.427555 -1.000000 -0.817744 0.362480 0.447106 0.033043 0.352613
-0.903989 0.427555 -1.000000 -0.798972 0.402169 0.447106 0.033043 0.352613
0.000000 0.000000 1.000000 -0.798972 0.402169 0.447106 0.250000 0.250000
-0.881921 0.471397 -1.000000 -0.798972 0.402169 0.447106 0.038339 0.363135
-0.881921 0.471397 -1.000000 -0.778276 0.440889 0.447106 0.038339 0.363135
0.000000 0.000000 1.000000 -0.778276 0.440889 0.447106 0.250000 0.250000
-0.857729 0.514103 -1.000000 -0.778276 0.440889 0.447106 0.044145 0.373385
-0.857729 0.514103 -1.000000 -0.755706 0.478545 0.447106 0.044145 0.373385
0.000000 0.000000 1.000000 -0.755706 0.478545 0.447106 0.250000 0.250000
-0.831469 0.555570 -1.000000 -0.755706 0.478545 0.447106 0.050447 0.383337
-0.831469 0.555570 -1.000000 -0.731314 0.515050 0.447106 0.050447 0.383337
0.000000 0.000000 1.000000 -0.731314 0.515050 0.447106 0.250000 0.250000
-0.803207 0.595700 -1.000000 -0.731314 0.515050 0.447106 0.057230 0.392968
-0.803207 0.595700 -1.000000 -0.705161 0.550313 0.447106 0.057230 0.392968
0.000000 0.000000 1.000000 -0.705161 0.550313 0.447106 0.250000 0.250000
-0.773010 0.634394 -1.000000 -0.705161 0.550313 0.447106 0.064478 0.402254
-0.773010 0.634394 -1.000000 -0.677309 0.584251 0.447106 0.064478 0.402254
0.000000 0.000000 1.000000 -0.677309 0.584251 0.447106 0.250000 0.250000
-0.740951 0.671559 -1.000000 -0.677309 0.584251 0.447106 0.072172 0.411174
-0.740951 0.671559 -1.000000 -0.647825 0.616781 0.447106 0.072172 0.411174
0.000000 0.000000 1.000000 -0.647825 0.616781 0.447106 0.250000 0.250000
-0.707106 0.707107 -1.000000 -0.647825 0.616781 0.447106 0.080295 0.419706
-0.707106 0.707107 -1.000000 -0.616780 0.647826 0.447106 0.080295 0.419706
0.000000 0.000000 1.000000 -0.616780 0.647826 0.447106 0.250000 0.250000
-0.671558 0.740952 -1.000000 -0.616780 0.647826 0.447106 0.088826 0.427828
-0.671558 0.740952 -1.000000 -0.584250 0.677310 0.447106 0.088826 0.427828
0.000000 0.000000 1.000000 -0.584250 0.677310 0.447106 0.250000 0.250000
-0.634392 0.773011 -1.000000 -0.584250 0.677310 0.447106 0.097746 0.435523
-0.634392 0.773011 -1.000000 -0.550312 0.705162 0.447106 0.097746 0.435523
0.000000 0.000000 1.000000 -0.550312 0.705162 0.447106 0.250000 0.250000
-0.595698 0.803208 -1.000000 -0.550312 0.705162 0.447106 0.107032 0.442770
-0.595698 0.803208 -1.000000 -0.515049 0.731315 0.447106 0.107032 0.442770
0.000000 0.000000 1.000000 -0.515049 0.731315 0.447106 0.250000 0.250000
-0.555569 0.831470 -1.000000 -0.515049 0.731315 0.447106 0.116663 0.449553
-0.555569 0.831470 -1.000000 -0.478544 0.755706 0.447106 0.116663 0.449553
0.000000 0.000000 1.000000 -0.478544 0.755706 0.447106 0.250000 0.250000
-0.514101 0.857729 -1.000000 -0.478544 0.755706 0.447106 0.126616 0.455855
-0.514101 0.857729 -1.000000 -0.440887 0.778277 0.447106 0.126616 0.455855
0.000000 0.000000 1.000000 -0.440887 0.778277 0.447106 0.250000 0.250000
-0.471395 0.881922 -1.000000 -0.440887 0.778277 0.447106 0.136865 0.461661
-0.471395 0.881922 -1.000000 -0.402167 0.798973 0.447106 0.136865 0.461661
0.000000 0.000000 1.000000 -0.402167 0.798973 0.447106 0.250000 0.250000
-0.427553 0.903990 -1.000000 -0.402167 0.798973 0.447106 0.147387 0.466958
-0.427553 0.903990 -1.000000 -0.362480 0.817744 0.447106 0.147387 0.466958
0.000000 0.000000 1.000000 -0.362480 0.817744 0.447106 0.250000 0.250000
-0.382682 0.923880 -1.000000 -0.362480 0.817744 0.447106 0.158156 0.471731
-0.382682 0.923880 -1.000000 -0.321918 0.834545 0.447106 0.158156 0.471731
0.000000 0.000000 1.000000 -0.321918 0.834545 0.447106 0.250000 0.250000
-0.336888 0.941545 -1.000000 -0.321918 0.834545 0.447106 0.169147 0.475971
-0.336888 0.941545 -1.000000 -0.280580 0.849336 0.447106 0.169147 0.475971
0.000000 0.000000 1.000000 -0.280580 0.849336 0.447106 0.250000 0.250000
-0.290283 0.956941 -1.000000 -0.280580 0.849336 0.447106 0.180332 0.479666
-0.290283 0.956941 -1.000000 -0.238568 0.862080 0.447106 0.180332 0.479666
0.000000 0.000000 1.000000 -0.238568 0.862080 0.447106 0.250000 0.250000
-0.242978 0.970032 -1.000000 -0.238568 0.862080 0.447106 0.191685 0.482808
-0.242978 0.970032 -1.000000 -0.195981 0.872747 0.447106 0.191685 0.482808
0.000000 0.000000 1.000000 -0.195981 0.872747 0.447106 0.250000 0.250000
-0.195088 0.980786 -1.000000 -0.195981 0.872747 0.447106 0.203179 0.485389
-0.195088 0.980786 -1.000000 -0.152919 0.881313 0.447106 0.203179 0.485389
0.000000 0.000000 1.000000 -0.152919 0.881313 0.447106 0.250000 0.250000
-0.146728 0.989177 -1.000000 -0.152919 0.881313 0.447106 0.214785 0.487402
-0.146728 0.989177 -1.000000 -0.109492 0.887754 0.447106 0.214785 0.487402
0.000000 0.000000 1.000000 -0.109492 0.887754 0.447106 0.250000 0.250000
-0.098014 0.995185 -1.000000 -0.109492 0.887754 0.447106 0.226477 0.488844
-0.098014 0.995185 -1.000000 -0.065799 0.892058 0.447106 0.226477 0.488844
0.000000 0.000000 1.000000 -0.065799 0.892058 0.447106 0.250000 0.250000
-0.049065 0.998796 -1.000000 -0.065799 0.892058 0.447106 0.238224 0.489711
-0.049065 0.998796 -1.000000 -0.021951 0.894212 0.447106 0.238224 0.489711
0.000000 0.000000 1.000000 -0.021951 0.894212 0.447106 0.250000 0.250000
0.000000 1.000000 -1.000000 -0.021951 0.894212 0.447106 0.250000 0.490000
0.000000 1.000000 -1.000000 -0.000000 0.000000 -1.000000 0.750000 0.490000
0.049068 0.998795 -1.000000 -0.000000 0.000000 -1.000000 0.761776 0.489711
0.098017 0.995185 -1.000000 -0.000000 0.000000 -1.000000 0.773524 0.488844
0.146730 0.989177 -1.000000 -0.000000 0.000000 -1.000000 0.785215 0.487402
0.195090 0.980785 -1.000000 -0.000000 0.000000 -1.000000 0.796822 0.485388
0.242980 0.970031 -1.000000 -0.000000 0.000000 -1.000000 0.808315 0.482808
0.290285 0.956940 -1.000000 -0.000000 0.000000 -1.000000 0.819668 0.479666
0.336890 0.941544 -1.000000 -0.000000 0.000000 -1.000000 0.830854 0.475971
0.382683 0.923880 -1.000000 -0.000000 0.000000 -1.000000 0.841844 0.471731
0.427555 0.903989 -1.000000 -0.000000 0.000000 -1.000000 0.852613 0.466957
0.471397 0.881921 -1.000000 -0.000000 0.000000 -1.000000 0.863135 0.461661
0.514103 0.857729 -1.000000 -0.000000 0.000000 -1.000000 0.873385 0.455855
0.555570 0.831470 -1.000000 -0.000000 0.000000 -1.000000 0.883337 0.449553
0.595699 0.803208 -1.000000 -0.000000 0.000000 -1.000000 0.892968 0.442770
0.634393 0.773010 -1.000000 -0.000000 0.000000 -1.000000 0.902254 0.435522
0.671559 0.740951 -1.000000 -0.000000 0.000000 -1.000000 0.911174 0.427828
0.707107 0.707107 -1.000000 -0.000000 0.000000 -1.000000 0.919706 0.419706
0.740951 0.671559 -1.000000 -0.000000 0.000000 -1.000000 0.927828 0.411174
0.773011 0.634393 -1.000000 -0.000000 0.000000 -1.000000 0.935523 0.402254
0.803208 0.595699 -1.000000 -0.000000 0.000000 -1.000000 0.942770 0.392968
0.831470 0.555570 -1.000000 -0.000000 0.000000 -1.000000 0.949553 0.383337
0.857729 0.514103 -1.000000 -0.000000 0.000000 -1.000000 0.955855 0.373385
0.881921 0.471397 -1.000000 -0.000000 0.000000 -1.000000 0.961661 0.363135
0.903989 0.427555 -1.000000 -0.000000 0.000000 -1.000000 0.966957 0.352613
0.923880 0.382683 -1.000000 -0.000000 0.000000 -1.000000 0.971731 0.341844
0.941544 0.336890 -1.000000 -0.000000 0.000000 -1.000000 0.975971 0.330853
0.956940 0.290284 -1.000000 -0.000000 0.000000 -1.000000 0.979666 0.319668
0.970031 0.242980 -1.000000 -0.000000 0.000000 -1.000000 0.982808 0.308315
0.980785 0.195090 -1.000000 -0.000000 0.000000 -1.000000 0.985389 0.296822
0.989177 0.146730 -1.000000 -0.000000 0.000000 -1.000000 0.987402 0.285215
0.995185 0.098017 -1.000000 -0.000000 0.000000 -1.000000 0.988844 0.273524
0.998795 0.049067 -1.000000 -0.000000 0.000000 -1.000000 0.989711 0.261776
1.000000 -0.000000 -1.000000 -0.000000 0.000000 -1.000000 0.990000 0.250000
0.998795 -0.049068 -1.000000 -0.000000 0.000000 -1.000000 0.989711 0.238224
0.995185 -0.098018 -1.000000 -0.000000 0.000000 -1.000000 0.988844 0.226476
0.989176 -0.146731 -1.000000 -0.000000 0.000000 -1.000000 0.987402 0.214785
0.980785 -0.195091 -1.000000 -0.000000 0.000000 -1.000000 0.985388 0.203178
0.970031 -0.242981 -1.000000 -0.000000 0.000000 -1.000000 0.982807 0.191685
0.956940 -0.290285 -1.000000 -0.000000 0.000000 -1.000000 0.979666 0.180332
0.941544 -0.336890 -1.000000 -0.000000 0.000000 -1.000000 0.975971 0.169146
0.923879 -0.382684 -1.000000 -0.000000 0.000000 -1.000000 0.971731 0.158156
0.903989 -0.427556 -1.000000 -0.000000 0.000000 -1.000000 0.966957 0.147387
0.881921 -0.471397 -1.000000 -0.000000 0.000000 -1.000000 0.961661 0.136865
0.857728 -0.514103 -1.000000 -0.000000 0.000000 -1.000000 0.955855 0.126615
0.831470 -0.555570 -1.000000 -0.000000 0.000000 -1.000000 0.949553 0.116663
0.803208 -0.595699 -1.000000 -0.000000 0.000000 -1.000000 0.942770 0.107032
0.773010 -0.634393 -1.000000 -0.000000 0.000000 -1.000000 0.935522 0.097746
0.740951 -0.671559 -1.000000 -0.000000 0.000000 -1.000000 0.927828 0.088826
0.707107 -0.707107 -1.000000 -0.000000 0.000000 -1.000000 0.919706 0.080294
0.671559 -0.740951 -1.000000 -0.000000 0.000000 -1.000000 0.911174 0.072172
0.634394 -0.773010 -1.000000 -0.000000 0.000000 -1.000000 0.902254 0.064478
0.595700 -0.803207 -1.000000 -0.000000 0.000000 -1.000000 0.892968 0.057230
0.555571 -0.831469 -1.000000 -0.000000 0.000000 -1.000000 0.883337 0.050447
0.514103 -0.857728 -1.000000 -0.000000 0.000000 -1.000000 0.873385 0.044145
0.471397 -0.881921 -1.000000 -0.000000 0.000000 -1.000000 0.863135 0.038339
0.427556 -0.903989 -1.000000 -0.000000 0.000000 -1.000000 0.852613 0.033043
0.382684 -0.923879 -1.000000 -0.000000 0.000000 -1.000000 0.841844 0.028269
0.336891 -0.941544 -1.000000 -0.000000 0.000000 -1.000000 0.830854 0.024030
0.290286 -0.956940 -1.000000 -0.000000 0.000000 -1.000000 0.819669 0.020334
0.242981 -0.970031 -1.000000 -0.000000 0.000000 -1.000000 0.808316 0.017193
0.195092 -0.980785 -1.000000 -0.000000 0.000000 -1.000000 0.796822 0.014612
0.146732 -0.989176 -1.000000 -0.000000 0.000000 -1.000000 0.785216 0.012598
0.098019 -0.995185 -1.000000 -0.000000 0.000000 -1.000000 0.773525 0.011156
0.049069 -0.998795 -1.000000 -0.000000 0.000000 -1.000000 0.761777 0.010289
0.000002 -1.000000 -1.000000 -0.000000 0.000000 -1.000000 0.750000 0.010000
-0.049066 -0.998796 -1.000000 -0.000000 0.000000 -1.000000 0.738224 0.010289
-0.098015 -0.995185 -1.000000 -0.000000 0.000000 -1.000000 0.726476 0.011156
-0.146728 -0.989177 -1.000000 -0.000000 0.000000 -1.000000 0.714785 0.012598
-0.195088 -0.980786 -1.000000 -0.000000 0.000000 -1.000000 0.703179 0.014611
-0.242978 -0.970032 -1.000000 -0.000000 0.000000 -1.000000 0.691685 0.017192
-0.290282 -0.956941 -1.000000 -0.000000 0.000000 -1.000000 0.680332 0.020334
-0.336887 -0.941545 -1.000000 -0.000000 0.000000 -1.000000 0.669147 0.024029
-0.382681 -0.923881 -1.000000 -0.000000 0.000000 -1.000000 0.658157 0.028269
-0.427553 -0.903990 -1.000000 -0.000000 0.000000 -1.000000 0.647387 0.033042
-0.471394 -0.881923 -1.000000 -0.000000 0.000000 -1.000000 0.636865 0.038339
-0.514100 -0.857730 -1.000000 -0.000000 0.000000 -1.000000 0.626616 0.044145
-0.555568 -0.831471 -1.000000 -0.000000 0.000000 -1.000000 0.616664 0.050447
-0.595697 -0.803209 -1.000000 -0.000000 0.000000 -1.000000 0.607033 0.057230
-0.634391 -0.773012 -1.000000 -0.000000 0.000000 -1.000000 0.597746 0.064477
-0.671557 -0.740953 -1.000000 -0.000000 0.000000 -1.000000 0.588826 0.072171
-0.707104 -0.707109 -1.000000 -0.000000 0.000000 -1.000000 0.580295 0.080294
-0.740949 -0.671562 -1.000000 -0.000000 0.000000 -1.000000 0.572172 0.088825
-0.773008 -0.634396 -1.000000 -0.000000 0.000000 -1.000000 0.564478 0.097745
-0.803206 -0.595702 -1.000000 -0.000000 0.000000 -1.000000 0.557231 0.107032
-0.831468 -0.555573 -1.000000 -0.000000 0.000000 -1.000000 0.550448 0.116663
-0.857727 -0.514105 -1.000000 -0.000000 0.000000 -1.000000 0.544145 0.126615
-0.881920 -0.471399 -1.000000 -0.000000 0.000000 -1.000000 0.538339 0.136864
-0.903988 -0.427557 -1.000000 -0.000000 0.000000 -1.000000 0.533043 0.147386
-0.923879 -0.382686 -1.000000 -0.000000 0.000000 -1.000000 0.528269 0.158155
-0.941543 -0.336892 -1.000000 -0.000000 0.000000 -1.000000 0.524030 0.169146
-0.956940 -0.290287 -1.000000 -0.000000 0.000000 -1.000000 0.520334 0.180331
-0.970031 -0.242982 -1.000000 -0.000000 0.000000 -1.000000 0.517193 0.191684
-0.980785 -0.195092 -1.000000 -0.000000 0.000000 -1.000000 0.514612 0.203178
-0.989176 -0.146732 -1.000000 -0.000000 0.000000 -1.000000 0.512598 0.214784
-0.995185 -0.098019 -1.000000 -0.000000 0.000000 -1.000000 0.511156 0.226475
-0.998795 -0.049069 -1.000000 -0.000000 0.000000 -1.000000 0.510289 0.238223
-1.000000 -0.000001 -1.000000 -0.000000 0.000000 -1.000000 0.510000 0.250000
-0.998796 0.049066 -1.000000 -0.000000 0.000000 -1.000000 0.510289 0.261776
-0.995185 0.098016 -1.000000 -0.000000 0.000000 -1.000000 0.511156 0.273524
-0.989177 0.146729 -1.000000 -0.000000 0.000000 -1.000000 0.512598 0.285215
-0.980785 0.195089 -1.000000 -0.000000 0.000000 -1.000000 0.514611 0.296821
-0.970031 0.242979 -1.000000 -0.000000 0.000000 -1.000000 0.517192 0.308315
-0.956941 0.290284 -1.000000 -0.000000 0.000000 -1.000000 0.520334 0.319668
-0.941544 0.336889 -1.000000 -0.000000 0.000000 -1.000000 0.524029 0.330853
-0.923880 0.382683 -1.000000 -0.000000 0.000000 -1.000000 0.528269 0.341844
-0.903989 0.427555 -1.000000 -0.000000 0.000000 -1.000000 0.533043 0.352613
-0.881921 0.471397 -1.000000 -0.000000 0.000000 -1.000000 0.538339 0.363135
-0.857729 0.514103 -1.000000 -0.000000 0.000000 -1.000000 0.544145 0.373385
-0.831469 0.555570 -1.000000 -0.000000 0.000000 -1.000000 0.550447 0.383337
-0.803207 0.595700 -1.000000 -0.000000 0.000000 -1.000000 0.557230 0.392968
-0.773010 0.634394 -1.000000 -0.000000 0.000000 -1.000000 0.564478 0.402254
-0.740951 0.671559 -1.000000 -0.000000 0.000000 -1.000000 0.572172 0.411174
-0.707106 0.707107 -1.000000 -0.000000 0.000000 -1.000000 0.580294 0.419706
-0.671558 0.740952 -1.000000 -0.000000 0.000000 -1.000000 0.588826 0.427828
-0.634392 0.773011 -1.000000 -0.000000 0.000000 -1.000000 0.597746 0.435523
-0.595698 0.803208 -1.000000 -0.000000 0.000000 -1.000000 0.607032 0.442770
-0.555569 0.831470 -1.000000 -0.000000 0.000000 -1.000000 0.616663 0.449553
-0.514101 0.857729 -1.000000 -0.000000 0.000000 -1.000000 0.626616 0.455855
-0.471395 0.881922 -1.000000 -0.000000 0.000000 -1.000000 0.636865 0.461661
-0.427553 0.903990 -1.000000 -0.000000 0.000000 -1.000000 0.647387 0.466958
-0.382682 0.923880 -1.000000 -0.000000 0.000000 -1.000000 0.658156 0.471731
-0.336888 0.941545 -1.000000 -0.000000 0.000000 -1.000000 0.669147 0.475971
-0.290283 0.956941 -1.000000 -0.000000 0.000000 -1.000000 0.680332 0.479666
-0.242978 0.970032 -1.000000 -0.000000 0.000000 -1.000000 0.691685 0.482808
-0.195088 0.980786 -1.000000 -0.000000 0.000000 -1.000000 0.703179 0.485389
-0.146728 0.989177 -1.000000 -0.000000 0.000000 -1.000000 0.714785 0.487402
-0.098014 0.995185 -1.000000 -0.000000 0.000000 -1.000000 0.726477 0.488844
-0.049065 0.998796 -1.000000 -0.000000 0.000000 -1.000000 0.738224 0.489711
3 0 1 2
3 3 4 5
3 6 7 8
3 9 10 11
3 12 13 14
3 15 16 17
3 18 19 20
3 21 22 23
3 24 25 26
3 27 28 29
3 30 31 32
3 33 34 35
3 36 37 38
3 39 40 41
3 42 43 44
3 45 46 47
3 48 49 50
3 51 52 53
3 54 55 56
3 57 58 59
3 60 61 62
3 63 64 65
3 66 67 68
3 69 70 71
3 72 73 74
3 75 76 77
3 78 79 80
3 81 82 83
3 84 85 86
3 87 88 89
3 90 91 92
3 93 94 95
3 96 97 98
3 99 100 101
3 102 103 104
3 105 106 107
3 108 109 110
3 111 112 113
3 114 115 116
3 117 118 119
3 120 121 122
3 123 124 125
3 126 127 128
3 129 130 131
3 132 133 134
3 135 136 137
3 138 139 140
3 141 142 143
3 144 145 146
3 147 148 149
3 150 151 152
3 153 154 155
3 156 157 158
3 159 160 161
3 162 163 164
3 165 166 167
3 168 169 170
3 171 172 173
3 174 175 176
3 177 178 179
3 180 181 182
3 183 184 185
3 186 187 188
3 189 190 191
3 192 193 194
3 195 196 197
3 198 199 200
3 201 202 203
3 204 205 206
3 207 208 209
3 210 211 212
3 213 214 215
3 216 217 218
3 219 220 221
3 222 223 224
3 225 226 227
3 228 229 230
3 231 232 233
3 234 235 236
3 237 238 239
3 240 241 242
3 243 244 245
3 246 247 248
3 249 250 251
3 252 253 254
3 255 256 257
3 258 259 260
3 261 262 263
3 264 265 266
3 267 268 269
3 270 271 272
3 273 274 275
3 276 277 278
3 279 280 281
3 282 283 284
3 285 286 287
3 288 289 290
3 291 292 293
3 294 295 296
3 297 298 299
3 300 301 302
3 303 304 305
3 306 307 308
3 309 310 311
3 312 313 314
3 315 316 317
3 318 319 320
3 321 322 323
3 324 325 326
3 327 328 329
3 330 331 332
3 333 334 335
3 336 337 338
3 339 340 341
3 342 343 344
3 345 346 347
3 348 349 350
3 351 352 353
3 354 355 356
3 357 358 359
3 360 361 362
3 363 364 365
3 366 367 368
3 369 370 371
3 372 373 374
3 375 376 377
3 378 379 380
3 381 382 383
128 384 385 386 387 388 389 390 391 392 393 394 395 396 397 398 399 400 401 402 403 404 405 406 407 408 409 410 411 412 413 414 415 416 417 418 419 420 421 422 423 424 425 426 427 428 429 430 431 432 433 434 435 436 437 438 439 440 441 442 443 444 445 446 447 448 449 450 451 452 453 454 455 456 457 458 459 460 461 462 463 464 465 466 467 468 469 470 471 472 473 474 475 476 477 478 479 480 481 482 483 484 485 486 487 488 489 490 491 492 493 494 495 496 497 498 499 500 501 502 503 504 505 506 507 508 509 510 511
